<svg xmlns="http://www.w3.org/2000/svg" xmlns:xlink="http://www.w3.org/1999/xlink" contentStyleType="text/css" height="529px" preserveAspectRatio="none" style="width:949px;height:529px;background:#FFFFFF;" version="1.1" viewBox="0 0 949 529" width="949px" zoomAndPan="magnify"><defs/><g><g id="elem_ciudadSantander"><rect fill="#F1F1F1" height="36.2969" style="stroke:#181818;stroke-width:0.5;" width="144.5938" x="537" y="7"/><text fill="#000000" font-family="sans-serif" font-size="14" lengthAdjust="spacing" textLength="130.5938" x="544" y="21.9951">Santander: Ciudad</text><line style="stroke:#181818;stroke-width:0.5;" x1="538" x2="680.5938" y1="27.2969" y2="27.2969"/></g><g id="elem_agenciaPrincipal"><rect fill="#F1F1F1" height="36.2969" style="stroke:#181818;stroke-width:0.5;" width="106.9688" x="701" y="199"/><text fill="#000000" font-family="sans-serif" font-size="14" lengthAdjust="spacing" textLength="92.9688" x="708" y="213.9951">TUS: Agencia</text><line style="stroke:#181818;stroke-width:0.5;" x1="702" x2="806.9688" y1="219.2969" y2="219.2969"/></g><g id="elem_conductor"><rect fill="#F1F1F1" height="36.2969" style="stroke:#181818;stroke-width:0.5;" width="195.2822" x="399" y="199"/><text fill="#000000" font-family="sans-serif" font-size="14" lengthAdjust="spacing" textLength="181.2822" x="406" y="213.9951">Pepe Mart&#237;nez: Conductor</text><line style="stroke:#181818;stroke-width:0.5;" x1="400" x2="593.2822" y1="219.2969" y2="219.2969"/></g><g id="elem_pasajero"><rect fill="#F1F1F1" height="36.2969" style="stroke:#181818;stroke-width:0.5;" width="168.5674" x="261" y="103"/><text fill="#000000" font-family="sans-serif" font-size="14" lengthAdjust="spacing" textLength="154.5674" x="268" y="117.9951">Natalia Cruz: Pasajero</text><line style="stroke:#181818;stroke-width:0.5;" x1="262" x2="428.5674" y1="123.2969" y2="123.2969"/></g><g id="elem_ruta1"><rect fill="#F1F1F1" height="36.2969" style="stroke:#181818;stroke-width:0.5;" width="255.541" x="267.5" y="295"/><text fill="#000000" font-family="sans-serif" font-size="14" lengthAdjust="spacing" textLength="241.541" x="274.5" y="309.9951">Gonzales T - PCTCAN UNEAT: Ruta</text><line style="stroke:#181818;stroke-width:0.5;" x1="268.5" x2="522.041" y1="315.2969" y2="315.2969"/></g><g id="elem_Servicio"><rect fill="#F1F1F1" height="36.2969" style="stroke:#181818;stroke-width:0.5;" width="113.4287" x="179" y="199"/><text fill="#000000" font-family="sans-serif" font-size="14" lengthAdjust="spacing" textLength="99.4287" x="186" y="213.9951">Bus1: Servicio</text><line style="stroke:#181818;stroke-width:0.5;" x1="180" x2="291.4287" y1="219.2969" y2="219.2969"/></g><g id="elem_bus101"><rect fill="#F1F1F1" height="36.2969" style="stroke:#181818;stroke-width:0.5;" width="166.9336" x="528" y="391"/><text fill="#000000" font-family="sans-serif" font-size="14" lengthAdjust="spacing" textLength="152.9336" x="535" y="405.9951">BYD Hibrido: Veh&#237;culo</text><line style="stroke:#181818;stroke-width:0.5;" x1="529" x2="693.9336" y1="411.2969" y2="411.2969"/></g><g id="elem_valdecilla"><rect fill="#F1F1F1" height="36.2969" style="stroke:#181818;stroke-width:0.5;" width="139.4805" x="260" y="391"/><text fill="#000000" font-family="sans-serif" font-size="14" lengthAdjust="spacing" textLength="125.4805" x="267" y="405.9951">Valdecilla: Parada</text><line style="stroke:#181818;stroke-width:0.5;" x1="261" x2="398.4805" y1="411.2969" y2="411.2969"/></g><g id="elem_horarioLunesViernes"><rect fill="#F1F1F1" height="36.2969" style="stroke:#181818;stroke-width:0.5;" width="137.3613" x="323" y="487"/><text fill="#000000" font-family="sans-serif" font-size="14" lengthAdjust="spacing" textLength="123.3613" x="330" y="501.9951">7:49 am : Horario</text><line style="stroke:#181818;stroke-width:0.5;" x1="324" x2="459.3613" y1="507.2969" y2="507.2969"/></g><g id="elem_tarifa"><rect fill="#F1F1F1" height="36.2969" style="stroke:#181818;stroke-width:0.5;" width="146.6514" x="772" y="295"/><text fill="#000000" font-family="sans-serif" font-size="14" lengthAdjust="spacing" textLength="132.6514" x="779" y="309.9951">Tarifa Joven: Tarifa</text><line style="stroke:#181818;stroke-width:0.5;" x1="773" x2="917.6514" y1="315.2969" y2="315.2969"/></g><g id="elem_abono"><rect fill="#F1F1F1" height="36.2969" style="stroke:#181818;stroke-width:0.5;" width="139.0908" x="776" y="391"/><text fill="#000000" font-family="sans-serif" font-size="14" lengthAdjust="spacing" textLength="125.0908" x="783" y="405.9951">Trimestral: Abono</text><line style="stroke:#181818;stroke-width:0.5;" x1="777" x2="914.0908" y1="411.2969" y2="411.2969"/></g><g id="elem_SistemadePago"><rect fill="#F1F1F1" height="36.2969" style="stroke:#181818;stroke-width:0.5;" width="196.7451" x="747" y="487"/><text fill="#000000" font-family="sans-serif" font-size="14" lengthAdjust="spacing" textLength="182.7451" x="754" y="501.9951">Efectivo: Sistema de Pago</text><line style="stroke:#181818;stroke-width:0.5;" x1="748" x2="942.7451" y1="507.2969" y2="507.2969"/></g><g id="elem_incidencia"><rect fill="#F1F1F1" height="36.2969" style="stroke:#181818;stroke-width:0.5;" width="225.333" x="7" y="295"/><text fill="#000000" font-family="sans-serif" font-size="14" lengthAdjust="spacing" textLength="211.333" x="14" y="309.9951">Retraso por tr&#225;fico: Incidencia</text><line style="stroke:#181818;stroke-width:0.5;" x1="8" x2="231.333" y1="315.2969" y2="315.2969"/></g><!--link ciudadSantander to agenciaPrincipal--><g id="link_ciudadSantander_agenciaPrincipal"><path codeLine="20" d="M624.35,43.14 C637.56,58.56 657.24,81.95 673.5,103 C699.17,136.24 723.9658,171.5592 739.3858,193.9392 " fill="none" id="ciudadSantander-to-agenciaPrincipal" style="stroke:#181818;stroke-width:1.0;"/><polygon fill="#181818" points="742.79,198.88,740.9775,189.1994,739.9531,194.7627,734.3898,193.7383,742.79,198.88" style="stroke:#181818;stroke-width:1.0;"/></g><!--link ciudadSantander to bus101--><g id="link_ciudadSantander_bus101"><path codeLine="21" d="M609.76,43.19 C610.23,74.28 611.17,141.93 611.5,199 C611.91,270.3 611.69,355.28 611.57,390.93 " fill="none" id="ciudadSantander-bus101" style="stroke:#181818;stroke-width:1.0;"/></g><!--link ciudadSantander to pasajero--><g id="link_ciudadSantander_pasajero"><path codeLine="22" d="M561.69,43.02 C513.99,60.01 441.13,85.95 393.4,102.95 " fill="none" id="ciudadSantander-pasajero" style="stroke:#181818;stroke-width:1.0;"/></g><!--link ciudadSantander to conductor--><g id="link_ciudadSantander_conductor"><path codeLine="23" d="M599.27,43.2 C577.76,79.37 528.05,162.96 506.62,198.98 " fill="none" id="ciudadSantander-conductor" style="stroke:#181818;stroke-width:1.0;"/></g><!--link Servicio to agenciaPrincipal--><g id="link_Servicio_agenciaPrincipal"><path codeLine="25" d="M283.7,198.9 C315.84,187.82 359.32,174.7 399,169 C512.06,152.75 544.7,143.32 656,169 C681.02,174.77 696.6706,181.7877 715.6806,192.8177 " fill="none" id="Servicio-to-agenciaPrincipal" style="stroke:#181818;stroke-width:1.0;"/><polygon fill="#181818" points="726.06,198.84,722.8778,192.369,715.6806,192.8177,718.8629,199.2886,726.06,198.84" style="stroke:#181818;stroke-width:1.0;"/></g><!--reverse link agenciaPrincipal to tarifa--><g id="link_agenciaPrincipal_tarifa"><path codeLine="26" d="M779.5369,243.8614 C795.9569,260.8214 812.53,277.95 828.92,294.87 " fill="none" id="agenciaPrincipal-backto-tarifa" style="stroke:#181818;stroke-width:1.0;"/><polygon fill="none" points="771.19,235.24,772.4897,242.333,779.5369,243.8614,778.2373,236.7684,771.19,235.24" style="stroke:#181818;stroke-width:1.0;"/></g><!--reverse link agenciaPrincipal to bus101--><g id="link_agenciaPrincipal_bus101"><path codeLine="27" d="M735.8623,244.9144 C720.3523,267.2344 698.91,297.56 673.5,331 C657.61,351.91 638.57,375.33 625.82,390.79 " fill="none" id="agenciaPrincipal-backto-bus101" style="stroke:#181818;stroke-width:1.0;"/><polygon fill="none" points="742.71,235.06,736.0013,237.7046,735.8623,244.9144,742.5709,242.2698,742.71,235.06" style="stroke:#181818;stroke-width:1.0;"/></g><!--reverse link tarifa to abono--><g id="link_tarifa_abono"><path codeLine="29" d="M845.5,343.24 C845.5,360.2 845.5,373.95 845.5,390.87 " fill="none" id="tarifa-backto-abono" style="stroke:#181818;stroke-width:1.0;"/><polygon fill="none" points="845.5,331.24,841.5,337.24,845.5,343.24,849.5,337.24,845.5,331.24" style="stroke:#181818;stroke-width:1.0;"/></g><!--reverse link abono to SistemadePago--><g id="link_abono_SistemadePago"><path codeLine="30" d="M845.5,439.24 C845.5,456.2 845.5,469.95 845.5,486.87 " fill="none" id="abono-backto-SistemadePago" style="stroke:#181818;stroke-width:1.0;"/><polygon fill="#181818" points="845.5,427.24,841.5,433.24,845.5,439.24,849.5,433.24,845.5,427.24" style="stroke:#181818;stroke-width:1.0;"/></g><!--link Servicio to ruta1--><g id="link_Servicio_ruta1"><path codeLine="32" d="M264.47,235.02 C293.38,252.01 332.367,274.9102 361.297,291.9102 " fill="none" id="Servicio-to-ruta1" style="stroke:#181818;stroke-width:1.0;"/><polygon fill="#181818" points="366.47,294.95,360.737,286.9417,362.1592,292.4169,356.684,293.839,366.47,294.95" style="stroke:#181818;stroke-width:1.0;"/></g><!--reverse link Servicio to incidencia--><g id="link_Servicio_incidencia"><path codeLine="33" d="M205.1672,242.5755 C184.2772,259.5055 161.72,277.79 140.74,294.79 " fill="none" id="Servicio-backto-incidencia" style="stroke:#181818;stroke-width:1.0;"/><polygon fill="none" points="214.49,235.02,207.3101,235.6902,205.1672,242.5755,212.3471,241.9053,214.49,235.02" style="stroke:#181818;stroke-width:1.0;"/></g><!--link ruta1 to bus101--><g id="link_ruta1_bus101"><path codeLine="35" d="M434.62,331.02 C473.64,348.01 533.26,373.95 572.31,390.95 " fill="none" id="ruta1-bus101" style="stroke:#181818;stroke-width:1.0;stroke-dasharray:7.0,7.0;"/></g><!--link ruta1 to valdecilla--><g id="link_ruta1_valdecilla"><path codeLine="36" d="M383.39,331.24 C371.49,348.2 353.41,373.95 341.53,390.87 " fill="none" id="ruta1-valdecilla" style="stroke:#181818;stroke-width:1.0;"/></g><!--reverse link ruta1 to horarioLunesViernes--><g id="link_ruta1_horarioLunesViernes"><path codeLine="37" d="M406.4819,342.4608 C414.5019,364.5708 421.9,392.9 416.5,427 C413.14,448.24 404.87,471.6 398.75,486.95 " fill="none" id="ruta1-backto-horarioLunesViernes" style="stroke:#181818;stroke-width:1.0;"/><polygon fill="none" points="402.39,331.18,400.6757,338.1844,406.4819,342.4608,408.1962,335.4564,402.39,331.18" style="stroke:#181818;stroke-width:1.0;"/></g><!--link valdecilla to horarioLunesViernes--><g id="link_valdecilla_horarioLunesViernes"><path codeLine="39" d="M340.87,427.24 C352.06,444.2 369.04,469.95 380.2,486.87 " fill="none" id="valdecilla-horarioLunesViernes" style="stroke:#181818;stroke-width:1.0;"/></g><!--reverse link conductor to ruta1--><g id="link_conductor_ruta1"><path codeLine="41" d="M469.1942,243.4137 C450.9642,260.3737 432.09,277.95 413.91,294.87 " fill="none" id="conductor-backto-ruta1" style="stroke:#181818;stroke-width:1.0;"/><polygon fill="none" points="477.98,235.24,470.8625,236.3983,469.1942,243.4137,476.3117,242.2555,477.98,235.24" style="stroke:#181818;stroke-width:1.0;"/></g><!--link conductor to bus101--><g id="link_conductor_bus101"><path codeLine="42" d="M506.91,235.2 C528.8,271.37 573.1867,344.6938 594.9867,380.7138 " fill="none" id="conductor-to-bus101" style="stroke:#181818;stroke-width:1.0;"/><polygon fill="none" points="601.2,390.98,601.5154,383.7758,594.9867,380.7138,594.6713,387.918,601.2,390.98" style="stroke:#181818;stroke-width:1.0;"/></g><!--link pasajero to ruta1--><g id="link_pasajero_ruta1"><path codeLine="44" d="M350.03,139.2 C359.54,175.37 381.54,258.96 391.02,294.98 " fill="none" id="pasajero-ruta1" style="stroke:#181818;stroke-width:1.0;stroke-dasharray:7.0,7.0;"/></g><!--link pasajero to Servicio--><g id="link_pasajero_Servicio"><path codeLine="45" d="M325.58,139.02 C305.77,155.95 275.53,181.79 255.64,198.79 " fill="none" id="pasajero-Servicio" style="stroke:#181818;stroke-width:1.0;stroke-dasharray:7.0,7.0;"/></g><!--SRC=[TLBDRjim3BxxAOWU2xXOWG53VHYGfSNQeGk2nWtG8sCnhGf52cWvXxxD7g1FaHSRBTbIaAGNcp_Vzv4YwLRlr7YuMA3rQ1Ln1LFTALGNW2qqmKovmWte-dbHmUILRACn037QSzRosw99o3bj2VuY-_sdfGyHTrPrZNSSzKSluMVeqMY4ANU2dcEBxyGkWBU3ax2_dVr0GotKKC9yMaydCtYUtKtg2fuw7njZCQwBHFdLjTSLB8Xtkj5HTdGovkKMxlMAjN8LBEbj_zbq9c9NGlzs8BT4ewZHnc3VAwEAHNSfdA4_gkytW1keuDunyb3yBTgFdQLsgOdbbocrfDO8VzoER0NH2omVp8nZlQ7MCnfPoihPA8szbSNkrlBJEtdIGhUUDWYAfEVNOGWnfgYF9CuJYMZhOEiOFE__hNKZ_0TPiSghryajYgDxWRByUNeQfw1nhcSoQUbdSlbwYkCYS5cQCg_s9Es4FapnR6vSTCI4K9nd-8fwUJIoOgmLtXolBeLw-k6OGXgkhiOoqHVGmU74MCyyUoCP2Lz1qdY2IcmfnyhIfLUEG-vRYhZ3oFYC_m00]--></g></svg>