<svg xmlns="http://www.w3.org/2000/svg" xmlns:xlink="http://www.w3.org/1999/xlink" contentStyleType="text/css" height="802px" preserveAspectRatio="none" style="width:348px;height:802px;background:#FFFFFF;" version="1.1" viewBox="0 0 348 802" width="348px" zoomAndPan="magnify"><defs/><g><ellipse cx="247.5" cy="16" fill="#222222" rx="10" ry="10" style="stroke:#222222;stroke-width:1.0;"/><g id="SinEmpezar"><rect fill="#F1F1F1" height="50" rx="12.5" ry="12.5" style="stroke:#181818;stroke-width:0.5;" width="103.3164" x="196" y="86"/><line style="stroke:#181818;stroke-width:0.5;" x1="196" x2="299.3164" y1="112.2969" y2="112.2969"/><text fill="#000000" font-family="sans-serif" font-size="14" lengthAdjust="spacing" textLength="83.3164" x="206" y="103.9951">SinEmpezar</text></g><g id="IncorporandoALinea"><rect fill="#F1F1F1" height="50" rx="12.5" ry="12.5" style="stroke:#181818;stroke-width:0.5;" width="160.4648" x="167.5" y="196"/><line style="stroke:#181818;stroke-width:0.5;" x1="167.5" x2="327.9648" y1="222.2969" y2="222.2969"/><text fill="#000000" font-family="sans-serif" font-size="14" lengthAdjust="spacing" textLength="140.4648" x="177.5" y="213.9951">IncorporandoALinea</text></g><g id="InicioRuta"><rect fill="#F1F1F1" height="50" rx="12.5" ry="12.5" style="stroke:#181818;stroke-width:0.5;" width="89.7129" x="143.5" y="306"/><line style="stroke:#181818;stroke-width:0.5;" x1="143.5" x2="233.2129" y1="332.2969" y2="332.2969"/><text fill="#000000" font-family="sans-serif" font-size="14" lengthAdjust="spacing" textLength="69.7129" x="153.5" y="323.9951">InicioRuta</text></g><g id="EnRutaATiempo"><rect fill="#F1F1F1" height="50" rx="12.5" ry="12.5" style="stroke:#181818;stroke-width:0.5;" width="132.1094" x="122.5" y="416"/><line style="stroke:#181818;stroke-width:0.5;" x1="122.5" x2="254.6094" y1="442.2969" y2="442.2969"/><text fill="#000000" font-family="sans-serif" font-size="14" lengthAdjust="spacing" textLength="112.1094" x="132.5" y="433.9951">EnRutaATiempo</text></g><g id="EnRutaConRetrasos"><rect fill="#F1F1F1" height="50" rx="12.5" ry="12.5" style="stroke:#181818;stroke-width:0.5;" width="158.9199" x="7" y="526"/><line style="stroke:#181818;stroke-width:0.5;" x1="7" x2="165.9199" y1="552.2969" y2="552.2969"/><text fill="#000000" font-family="sans-serif" font-size="14" lengthAdjust="spacing" textLength="138.9199" x="17" y="543.9951">EnRutaConRetrasos</text></g><g id="FinalDeRuta"><rect fill="#F1F1F1" height="50" rx="12.5" ry="12.5" style="stroke:#181818;stroke-width:0.5;" width="105.3467" x="149" y="636"/><line style="stroke:#181818;stroke-width:0.5;" x1="149" x2="254.3467" y1="662.2969" y2="662.2969"/><text fill="#000000" font-family="sans-serif" font-size="14" lengthAdjust="spacing" textLength="85.3467" x="159" y="653.9951">FinalDeRuta</text></g><ellipse cx="201.5" cy="771" fill="none" rx="11" ry="11" style="stroke:#222222;stroke-width:1.0;"/><ellipse cx="201.5" cy="771" fill="#222222" rx="6" ry="6" style="stroke:#222222;stroke-width:1.0;"/><g id="EnEspera"><rect fill="#F1F1F1" height="50" rx="12.5" ry="12.5" style="stroke:#181818;stroke-width:0.5;" width="85.6934" x="255.5" y="746"/><line style="stroke:#181818;stroke-width:0.5;" x1="255.5" x2="341.1934" y1="772.2969" y2="772.2969"/><text fill="#000000" font-family="sans-serif" font-size="14" lengthAdjust="spacing" textLength="65.6934" x="265.5" y="763.9951">EnEspera</text></g><!--link *start* to SinEmpezar--><g id="link_*start*_SinEmpezar"><path d="M247.5,26.26 C247.5,40.04 247.5,60.42 247.5,79.91 " fill="none" id="*start*-to-SinEmpezar" style="stroke:#181818;stroke-width:1.0;"/><polygon fill="#181818" points="247.5,85.91,251.5,76.91,247.5,80.91,243.5,76.91,247.5,85.91" style="stroke:#181818;stroke-width:1.0;"/></g><!--link SinEmpezar to IncorporandoALinea--><g id="link_SinEmpezar_IncorporandoALinea"><path d="M247.5,136.24 C247.5,154.02 247.5,172.08 247.5,189.84 " fill="none" id="SinEmpezar-to-IncorporandoALinea" style="stroke:#181818;stroke-width:1.0;"/><polygon fill="#181818" points="247.5,195.84,251.5,186.84,247.5,190.84,243.5,186.84,247.5,195.84" style="stroke:#181818;stroke-width:1.0;"/></g><!--link IncorporandoALinea to InicioRuta--><g id="link_IncorporandoALinea_InicioRuta"><path d="M234.26,246.24 C224.54,264.02 214.276,282.8142 204.576,300.5742 " fill="none" id="IncorporandoALinea-to-InicioRuta" style="stroke:#181818;stroke-width:1.0;"/><polygon fill="#181818" points="201.7,305.84,209.5246,299.8587,204.0967,301.4518,202.5035,296.024,201.7,305.84" style="stroke:#181818;stroke-width:1.0;"/></g><!--link InicioRuta to EnRutaATiempo--><g id="link_InicioRuta_EnRutaATiempo"><path d="M188.5,356.24 C188.5,374.02 188.5,392.08 188.5,409.84 " fill="none" id="InicioRuta-to-EnRutaATiempo" style="stroke:#181818;stroke-width:1.0;"/><polygon fill="#181818" points="188.5,415.84,192.5,406.84,188.5,410.84,184.5,406.84,188.5,415.84" style="stroke:#181818;stroke-width:1.0;"/></g><!--link InicioRuta to EnRutaConRetrasos--><g id="link_InicioRuta_EnRutaConRetrasos"><path d="M155.28,356.25 C137.21,371.34 116.21,392.34 104.5,416 C87.01,451.34 84.6246,492.0109 85.1146,519.9109 " fill="none" id="InicioRuta-to-EnRutaConRetrasos" style="stroke:#181818;stroke-width:1.0;"/><polygon fill="#181818" points="85.22,525.91,89.0613,516.8411,85.1322,520.9108,81.0626,516.9816,85.22,525.91" style="stroke:#181818;stroke-width:1.0;"/></g><!--link EnRutaConRetrasos to EnRutaATiempo--><g id="link_EnRutaConRetrasos_EnRutaATiempo"><path d="M120.78,525.84 C140.27,508.08 159.2619,488.7212 173.3619,470.9412 " fill="none" id="EnRutaConRetrasos-to-EnRutaATiempo" style="stroke:#181818;stroke-width:1.0;"/><polygon fill="#181818" points="177.09,466.24,168.3637,470.8063,173.9832,470.1576,174.6319,475.7772,177.09,466.24" style="stroke:#181818;stroke-width:1.0;"/></g><!--link EnRutaATiempo to EnRutaConRetrasos--><g id="link_EnRutaATiempo_EnRutaConRetrasos"><path d="M154.77,466.24 C135.42,484.02 116.4617,503.3976 102.2317,521.1576 " fill="none" id="EnRutaATiempo-to-EnRutaConRetrasos" style="stroke:#181818;stroke-width:1.0;"/><polygon fill="#181818" points="98.48,525.84,107.2291,521.3176,101.6064,521.938,100.986,516.3153,98.48,525.84" style="stroke:#181818;stroke-width:1.0;"/></g><!--link EnRutaATiempo to FinalDeRuta--><g id="link_EnRutaATiempo_FinalDeRuta"><path d="M189.94,466.16 C192.44,508.07 197.1933,587.7606 199.6933,629.7406 " fill="none" id="EnRutaATiempo-to-FinalDeRuta" style="stroke:#181818;stroke-width:1.0;"/><polygon fill="#181818" points="200.05,635.73,203.5079,626.5081,199.7528,630.7388,195.5221,626.9837,200.05,635.73" style="stroke:#181818;stroke-width:1.0;"/></g><!--link EnRutaConRetrasos to FinalDeRuta--><g id="link_EnRutaConRetrasos_FinalDeRuta"><path d="M112.31,576.24 C131.25,594.02 152.4854,613.9736 171.4054,631.7336 " fill="none" id="EnRutaConRetrasos-to-FinalDeRuta" style="stroke:#181818;stroke-width:1.0;"/><polygon fill="#181818" points="175.78,635.84,171.9557,626.764,172.1345,632.418,166.4805,632.5968,175.78,635.84" style="stroke:#181818;stroke-width:1.0;"/></g><!--link FinalDeRuta to *end*--><g id="link_FinalDeRuta_*end*"><path d="M201.5,686.24 C201.5,709.37 201.5,737.11 201.5,753.83 " fill="none" id="FinalDeRuta-to-*end*" style="stroke:#181818;stroke-width:1.0;"/><polygon fill="#181818" points="201.5,759.83,205.5,750.83,201.5,754.83,197.5,750.83,201.5,759.83" style="stroke:#181818;stroke-width:1.0;"/></g><!--link FinalDeRuta to EnEspera--><g id="link_FinalDeRuta_EnEspera"><path d="M223.27,686.24 C239.24,704.02 256.8409,723.616 272.7909,741.376 " fill="none" id="FinalDeRuta-to-EnEspera" style="stroke:#181818;stroke-width:1.0;"/><polygon fill="#181818" points="276.8,745.84,273.7624,736.4713,273.4591,742.12,267.8104,741.8167,276.8,745.84" style="stroke:#181818;stroke-width:1.0;"/></g><!--link EnEspera to IncorporandoALinea--><g id="link_EnEspera_IncorporandoALinea"><path d="M300.15,745.82 C302.75,705.61 307.5,622.46 307.5,552 C307.5,440 307.5,440 307.5,440 C307.5,367.38 278.5803,291.3646 261.2003,251.7446 " fill="none" id="EnEspera-to-IncorporandoALinea" style="stroke:#181818;stroke-width:1.0;"/><polygon fill="#181818" points="258.79,246.25,258.7424,256.0987,260.7986,250.8288,266.0685,252.885,258.79,246.25" style="stroke:#181818;stroke-width:1.0;"/></g><!--SRC=[VL2z2i8m4DxlAJ8N-Wf2qGY2KtKh7Ovwmu6z2qbT-lIQ56bAezltn_STrrMzgUk3kR7OqT6C7c35oRh8eDwfHtbeSsKXD005SSdomDg-9eoHBqwMbGYREzFer9JTeqfBayUWuREnrmezM_g_Aa-TMV1vedHgUIXB6CX9DBkgXvrenGP77kFUWduyy0q0]--></g></svg>