<svg xmlns="http://www.w3.org/2000/svg" xmlns:xlink="http://www.w3.org/1999/xlink" contentStyleType="text/css" height="602px" preserveAspectRatio="none" style="width:643px;height:602px;background:#FFFFFF;" version="1.1" viewBox="0 0 643 602" width="643px" zoomAndPan="magnify"><defs/><g><!--class Ciudad--><g id="elem_Ciudad"><rect codeLine="1" fill="#F1F1F1" height="48" id="Ciudad" rx="2.5" ry="2.5" style="stroke:#181818;stroke-width:0.5;" width="80.8906" x="408" y="7"/><ellipse cx="423" cy="23" fill="#ADD1B2" rx="11" ry="11" style="stroke:#181818;stroke-width:1.0;"/><path d="M425.9688,28.6406 Q425.3906,28.9375 424.75,29.0781 Q424.1094,29.2344 423.4063,29.2344 Q420.9063,29.2344 419.5781,27.5938 Q418.2656,25.9375 418.2656,22.8125 Q418.2656,19.6875 419.5781,18.0313 Q420.9063,16.375 423.4063,16.375 Q424.1094,16.375 424.75,16.5313 Q425.4063,16.6875 425.9688,16.9844 L425.9688,19.7031 Q425.3438,19.125 424.75,18.8594 Q424.1563,18.5781 423.5313,18.5781 Q422.1875,18.5781 421.5,19.6563 Q420.8125,20.7188 420.8125,22.8125 Q420.8125,24.9063 421.5,25.9844 Q422.1875,27.0469 423.5313,27.0469 Q424.1563,27.0469 424.75,26.7813 Q425.3438,26.5 425.9688,25.9219 L425.9688,28.6406 Z " fill="#000000"/><text fill="#000000" font-family="sans-serif" font-size="14" lengthAdjust="spacing" textLength="48.8906" x="437" y="27.8467">Ciudad</text><line style="stroke:#181818;stroke-width:0.5;" x1="409" x2="487.8906" y1="39" y2="39"/><line style="stroke:#181818;stroke-width:0.5;" x1="409" x2="487.8906" y1="47" y2="47"/></g><!--class Agencia--><g id="elem_Agencia"><rect codeLine="2" fill="#F1F1F1" height="48" id="Agencia" rx="2.5" ry="2.5" style="stroke:#181818;stroke-width:0.5;" width="88.1162" x="236.5" y="115"/><ellipse cx="251.5" cy="131" fill="#ADD1B2" rx="11" ry="11" style="stroke:#181818;stroke-width:1.0;"/><path d="M254.4688,136.6406 Q253.8906,136.9375 253.25,137.0781 Q252.6094,137.2344 251.9063,137.2344 Q249.4063,137.2344 248.0781,135.5938 Q246.7656,133.9375 246.7656,130.8125 Q246.7656,127.6875 248.0781,126.0313 Q249.4063,124.375 251.9063,124.375 Q252.6094,124.375 253.25,124.5313 Q253.9063,124.6875 254.4688,124.9844 L254.4688,127.7031 Q253.8438,127.125 253.25,126.8594 Q252.6563,126.5781 252.0313,126.5781 Q250.6875,126.5781 250,127.6563 Q249.3125,128.7188 249.3125,130.8125 Q249.3125,132.9063 250,133.9844 Q250.6875,135.0469 252.0313,135.0469 Q252.6563,135.0469 253.25,134.7813 Q253.8438,134.5 254.4688,133.9219 L254.4688,136.6406 Z " fill="#000000"/><text fill="#000000" font-family="sans-serif" font-size="14" lengthAdjust="spacing" textLength="56.1162" x="265.5" y="135.8467">Agencia</text><line style="stroke:#181818;stroke-width:0.5;" x1="237.5" x2="323.6162" y1="147" y2="147"/><line style="stroke:#181818;stroke-width:0.5;" x1="237.5" x2="323.6162" y1="155" y2="155"/></g><!--class Persona--><g id="elem_Persona"><rect codeLine="3" fill="#F1F1F1" height="48" id="Persona" rx="2.5" ry="2.5" style="stroke:#181818;stroke-width:0.5;" width="88.123" x="404.5" y="115"/><ellipse cx="419.5" cy="131" fill="#ADD1B2" rx="11" ry="11" style="stroke:#181818;stroke-width:1.0;"/><path d="M422.4688,136.6406 Q421.8906,136.9375 421.25,137.0781 Q420.6094,137.2344 419.9063,137.2344 Q417.4063,137.2344 416.0781,135.5938 Q414.7656,133.9375 414.7656,130.8125 Q414.7656,127.6875 416.0781,126.0313 Q417.4063,124.375 419.9063,124.375 Q420.6094,124.375 421.25,124.5313 Q421.9063,124.6875 422.4688,124.9844 L422.4688,127.7031 Q421.8438,127.125 421.25,126.8594 Q420.6563,126.5781 420.0313,126.5781 Q418.6875,126.5781 418,127.6563 Q417.3125,128.7188 417.3125,130.8125 Q417.3125,132.9063 418,133.9844 Q418.6875,135.0469 420.0313,135.0469 Q420.6563,135.0469 421.25,134.7813 Q421.8438,134.5 422.4688,133.9219 L422.4688,136.6406 Z " fill="#000000"/><text fill="#000000" font-family="sans-serif" font-size="14" lengthAdjust="spacing" textLength="56.123" x="433.5" y="135.8467">Persona</text><line style="stroke:#181818;stroke-width:0.5;" x1="405.5" x2="491.623" y1="147" y2="147"/><line style="stroke:#181818;stroke-width:0.5;" x1="405.5" x2="491.623" y1="155" y2="155"/></g><!--class Conductor--><g id="elem_Conductor"><rect codeLine="4" fill="#F1F1F1" height="48" id="Conductor" rx="2.5" ry="2.5" style="stroke:#181818;stroke-width:0.5;" width="104.4814" x="486.5" y="223"/><ellipse cx="501.5" cy="239" fill="#ADD1B2" rx="11" ry="11" style="stroke:#181818;stroke-width:1.0;"/><path d="M504.4688,244.6406 Q503.8906,244.9375 503.25,245.0781 Q502.6094,245.2344 501.9063,245.2344 Q499.4063,245.2344 498.0781,243.5938 Q496.7656,241.9375 496.7656,238.8125 Q496.7656,235.6875 498.0781,234.0313 Q499.4063,232.375 501.9063,232.375 Q502.6094,232.375 503.25,232.5313 Q503.9063,232.6875 504.4688,232.9844 L504.4688,235.7031 Q503.8438,235.125 503.25,234.8594 Q502.6563,234.5781 502.0313,234.5781 Q500.6875,234.5781 500,235.6563 Q499.3125,236.7188 499.3125,238.8125 Q499.3125,240.9063 500,241.9844 Q500.6875,243.0469 502.0313,243.0469 Q502.6563,243.0469 503.25,242.7813 Q503.8438,242.5 504.4688,241.9219 L504.4688,244.6406 Z " fill="#000000"/><text fill="#000000" font-family="sans-serif" font-size="14" lengthAdjust="spacing" textLength="72.4814" x="515.5" y="243.8467">Conductor</text><line style="stroke:#181818;stroke-width:0.5;" x1="487.5" x2="589.9814" y1="255" y2="255"/><line style="stroke:#181818;stroke-width:0.5;" x1="487.5" x2="589.9814" y1="263" y2="263"/></g><!--class Pasajero--><g id="elem_Pasajero"><rect codeLine="5" fill="#F1F1F1" height="48" id="Pasajero" rx="2.5" ry="2.5" style="stroke:#181818;stroke-width:0.5;" width="91.7188" x="288.5" y="223"/><ellipse cx="303.5" cy="239" fill="#ADD1B2" rx="11" ry="11" style="stroke:#181818;stroke-width:1.0;"/><path d="M306.4688,244.6406 Q305.8906,244.9375 305.25,245.0781 Q304.6094,245.2344 303.9063,245.2344 Q301.4063,245.2344 300.0781,243.5938 Q298.7656,241.9375 298.7656,238.8125 Q298.7656,235.6875 300.0781,234.0313 Q301.4063,232.375 303.9063,232.375 Q304.6094,232.375 305.25,232.5313 Q305.9063,232.6875 306.4688,232.9844 L306.4688,235.7031 Q305.8438,235.125 305.25,234.8594 Q304.6563,234.5781 304.0313,234.5781 Q302.6875,234.5781 302,235.6563 Q301.3125,236.7188 301.3125,238.8125 Q301.3125,240.9063 302,241.9844 Q302.6875,243.0469 304.0313,243.0469 Q304.6563,243.0469 305.25,242.7813 Q305.8438,242.5 306.4688,241.9219 L306.4688,244.6406 Z " fill="#000000"/><text fill="#000000" font-family="sans-serif" font-size="14" lengthAdjust="spacing" textLength="59.7188" x="317.5" y="243.8467">Pasajero</text><line style="stroke:#181818;stroke-width:0.5;" x1="289.5" x2="379.2188" y1="255" y2="255"/><line style="stroke:#181818;stroke-width:0.5;" x1="289.5" x2="379.2188" y1="263" y2="263"/></g><!--class Rutas--><g id="elem_Rutas"><rect codeLine="6" fill="#F1F1F1" height="48" id="Rutas" rx="2.5" ry="2.5" style="stroke:#181818;stroke-width:0.5;" width="71.9629" x="308.5" y="331"/><ellipse cx="323.5" cy="347" fill="#ADD1B2" rx="11" ry="11" style="stroke:#181818;stroke-width:1.0;"/><path d="M326.4688,352.6406 Q325.8906,352.9375 325.25,353.0781 Q324.6094,353.2344 323.9063,353.2344 Q321.4063,353.2344 320.0781,351.5938 Q318.7656,349.9375 318.7656,346.8125 Q318.7656,343.6875 320.0781,342.0313 Q321.4063,340.375 323.9063,340.375 Q324.6094,340.375 325.25,340.5313 Q325.9063,340.6875 326.4688,340.9844 L326.4688,343.7031 Q325.8438,343.125 325.25,342.8594 Q324.6563,342.5781 324.0313,342.5781 Q322.6875,342.5781 322,343.6563 Q321.3125,344.7188 321.3125,346.8125 Q321.3125,348.9063 322,349.9844 Q322.6875,351.0469 324.0313,351.0469 Q324.6563,351.0469 325.25,350.7813 Q325.8438,350.5 326.4688,349.9219 L326.4688,352.6406 Z " fill="#000000"/><text fill="#000000" font-family="sans-serif" font-size="14" lengthAdjust="spacing" textLength="39.9629" x="337.5" y="351.8467">Rutas</text><line style="stroke:#181818;stroke-width:0.5;" x1="309.5" x2="379.4629" y1="363" y2="363"/><line style="stroke:#181818;stroke-width:0.5;" x1="309.5" x2="379.4629" y1="371" y2="371"/></g><!--class Servicios--><g id="elem_Servicios"><rect codeLine="7" fill="#F1F1F1" height="48" id="Servicios" rx="2.5" ry="2.5" style="stroke:#181818;stroke-width:0.5;" width="94.877" x="178" y="331"/><ellipse cx="193" cy="347" fill="#ADD1B2" rx="11" ry="11" style="stroke:#181818;stroke-width:1.0;"/><path d="M195.9688,352.6406 Q195.3906,352.9375 194.75,353.0781 Q194.1094,353.2344 193.4063,353.2344 Q190.9063,353.2344 189.5781,351.5938 Q188.2656,349.9375 188.2656,346.8125 Q188.2656,343.6875 189.5781,342.0313 Q190.9063,340.375 193.4063,340.375 Q194.1094,340.375 194.75,340.5313 Q195.4063,340.6875 195.9688,340.9844 L195.9688,343.7031 Q195.3438,343.125 194.75,342.8594 Q194.1563,342.5781 193.5313,342.5781 Q192.1875,342.5781 191.5,343.6563 Q190.8125,344.7188 190.8125,346.8125 Q190.8125,348.9063 191.5,349.9844 Q192.1875,351.0469 193.5313,351.0469 Q194.1563,351.0469 194.75,350.7813 Q195.3438,350.5 195.9688,349.9219 L195.9688,352.6406 Z " fill="#000000"/><text fill="#000000" font-family="sans-serif" font-size="14" lengthAdjust="spacing" textLength="62.877" x="207" y="351.8467">Servicios</text><line style="stroke:#181818;stroke-width:0.5;" x1="179" x2="271.877" y1="363" y2="363"/><line style="stroke:#181818;stroke-width:0.5;" x1="179" x2="271.877" y1="371" y2="371"/></g><!--class Vehiculos--><g id="elem_Vehiculos"><rect codeLine="8" fill="#F1F1F1" height="48" id="Vehiculos" rx="2.5" ry="2.5" style="stroke:#181818;stroke-width:0.5;" width="99.2725" x="505" y="439"/><ellipse cx="520" cy="455" fill="#ADD1B2" rx="11" ry="11" style="stroke:#181818;stroke-width:1.0;"/><path d="M522.9688,460.6406 Q522.3906,460.9375 521.75,461.0781 Q521.1094,461.2344 520.4063,461.2344 Q517.9063,461.2344 516.5781,459.5938 Q515.2656,457.9375 515.2656,454.8125 Q515.2656,451.6875 516.5781,450.0313 Q517.9063,448.375 520.4063,448.375 Q521.1094,448.375 521.75,448.5313 Q522.4063,448.6875 522.9688,448.9844 L522.9688,451.7031 Q522.3438,451.125 521.75,450.8594 Q521.1563,450.5781 520.5313,450.5781 Q519.1875,450.5781 518.5,451.6563 Q517.8125,452.7188 517.8125,454.8125 Q517.8125,456.9063 518.5,457.9844 Q519.1875,459.0469 520.5313,459.0469 Q521.1563,459.0469 521.75,458.7813 Q522.3438,458.5 522.9688,457.9219 L522.9688,460.6406 Z " fill="#000000"/><text fill="#000000" font-family="sans-serif" font-size="14" lengthAdjust="spacing" textLength="67.2725" x="534" y="459.8467">Vehiculos</text><line style="stroke:#181818;stroke-width:0.5;" x1="506" x2="603.2725" y1="471" y2="471"/><line style="stroke:#181818;stroke-width:0.5;" x1="506" x2="603.2725" y1="479" y2="479"/></g><!--class Paradas--><g id="elem_Paradas"><rect codeLine="9" fill="#F1F1F1" height="48" id="Paradas" rx="2.5" ry="2.5" style="stroke:#181818;stroke-width:0.5;" width="88.1162" x="381.5" y="439"/><ellipse cx="396.5" cy="455" fill="#ADD1B2" rx="11" ry="11" style="stroke:#181818;stroke-width:1.0;"/><path d="M399.4688,460.6406 Q398.8906,460.9375 398.25,461.0781 Q397.6094,461.2344 396.9063,461.2344 Q394.4063,461.2344 393.0781,459.5938 Q391.7656,457.9375 391.7656,454.8125 Q391.7656,451.6875 393.0781,450.0313 Q394.4063,448.375 396.9063,448.375 Q397.6094,448.375 398.25,448.5313 Q398.9063,448.6875 399.4688,448.9844 L399.4688,451.7031 Q398.8438,451.125 398.25,450.8594 Q397.6563,450.5781 397.0313,450.5781 Q395.6875,450.5781 395,451.6563 Q394.3125,452.7188 394.3125,454.8125 Q394.3125,456.9063 395,457.9844 Q395.6875,459.0469 397.0313,459.0469 Q397.6563,459.0469 398.25,458.7813 Q398.8438,458.5 399.4688,457.9219 L399.4688,460.6406 Z " fill="#000000"/><text fill="#000000" font-family="sans-serif" font-size="14" lengthAdjust="spacing" textLength="56.1162" x="410.5" y="459.8467">Paradas</text><line style="stroke:#181818;stroke-width:0.5;" x1="382.5" x2="468.6162" y1="471" y2="471"/><line style="stroke:#181818;stroke-width:0.5;" x1="382.5" x2="468.6162" y1="479" y2="479"/></g><!--class Horarios--><g id="elem_Horarios"><rect codeLine="10" fill="#F1F1F1" height="48" id="Horarios" rx="2.5" ry="2.5" style="stroke:#181818;stroke-width:0.5;" width="90.9326" x="331" y="547"/><ellipse cx="346" cy="563" fill="#ADD1B2" rx="11" ry="11" style="stroke:#181818;stroke-width:1.0;"/><path d="M348.9688,568.6406 Q348.3906,568.9375 347.75,569.0781 Q347.1094,569.2344 346.4063,569.2344 Q343.9063,569.2344 342.5781,567.5938 Q341.2656,565.9375 341.2656,562.8125 Q341.2656,559.6875 342.5781,558.0313 Q343.9063,556.375 346.4063,556.375 Q347.1094,556.375 347.75,556.5313 Q348.4063,556.6875 348.9688,556.9844 L348.9688,559.7031 Q348.3438,559.125 347.75,558.8594 Q347.1563,558.5781 346.5313,558.5781 Q345.1875,558.5781 344.5,559.6563 Q343.8125,560.7188 343.8125,562.8125 Q343.8125,564.9063 344.5,565.9844 Q345.1875,567.0469 346.5313,567.0469 Q347.1563,567.0469 347.75,566.7813 Q348.3438,566.5 348.9688,565.9219 L348.9688,568.6406 Z " fill="#000000"/><text fill="#000000" font-family="sans-serif" font-size="14" lengthAdjust="spacing" textLength="58.9326" x="360" y="567.8467">Horarios</text><line style="stroke:#181818;stroke-width:0.5;" x1="332" x2="420.9326" y1="579" y2="579"/><line style="stroke:#181818;stroke-width:0.5;" x1="332" x2="420.9326" y1="587" y2="587"/></g><!--class Tarifas--><g id="elem_Tarifas"><rect codeLine="11" fill="#F1F1F1" height="48" id="Tarifas" rx="2.5" ry="2.5" style="stroke:#181818;stroke-width:0.5;" width="79.5781" x="102.5" y="223"/><ellipse cx="117.5" cy="239" fill="#ADD1B2" rx="11" ry="11" style="stroke:#181818;stroke-width:1.0;"/><path d="M120.4688,244.6406 Q119.8906,244.9375 119.25,245.0781 Q118.6094,245.2344 117.9063,245.2344 Q115.4063,245.2344 114.0781,243.5938 Q112.7656,241.9375 112.7656,238.8125 Q112.7656,235.6875 114.0781,234.0313 Q115.4063,232.375 117.9063,232.375 Q118.6094,232.375 119.25,232.5313 Q119.9063,232.6875 120.4688,232.9844 L120.4688,235.7031 Q119.8438,235.125 119.25,234.8594 Q118.6563,234.5781 118.0313,234.5781 Q116.6875,234.5781 116,235.6563 Q115.3125,236.7188 115.3125,238.8125 Q115.3125,240.9063 116,241.9844 Q116.6875,243.0469 118.0313,243.0469 Q118.6563,243.0469 119.25,242.7813 Q119.8438,242.5 120.4688,241.9219 L120.4688,244.6406 Z " fill="#000000"/><text fill="#000000" font-family="sans-serif" font-size="14" lengthAdjust="spacing" textLength="47.5781" x="131.5" y="243.8467">Tarifas</text><line style="stroke:#181818;stroke-width:0.5;" x1="103.5" x2="181.0781" y1="255" y2="255"/><line style="stroke:#181818;stroke-width:0.5;" x1="103.5" x2="181.0781" y1="263" y2="263"/></g><!--class Abono--><g id="elem_Abono"><rect codeLine="12" fill="#F1F1F1" height="48" id="Abono" rx="2.5" ry="2.5" style="stroke:#181818;stroke-width:0.5;" width="76.4678" x="51.5" y="331"/><ellipse cx="66.5" cy="347" fill="#ADD1B2" rx="11" ry="11" style="stroke:#181818;stroke-width:1.0;"/><path d="M69.4688,352.6406 Q68.8906,352.9375 68.25,353.0781 Q67.6094,353.2344 66.9063,353.2344 Q64.4063,353.2344 63.0781,351.5938 Q61.7656,349.9375 61.7656,346.8125 Q61.7656,343.6875 63.0781,342.0313 Q64.4063,340.375 66.9063,340.375 Q67.6094,340.375 68.25,340.5313 Q68.9063,340.6875 69.4688,340.9844 L69.4688,343.7031 Q68.8438,343.125 68.25,342.8594 Q67.6563,342.5781 67.0313,342.5781 Q65.6875,342.5781 65,343.6563 Q64.3125,344.7188 64.3125,346.8125 Q64.3125,348.9063 65,349.9844 Q65.6875,351.0469 67.0313,351.0469 Q67.6563,351.0469 68.25,350.7813 Q68.8438,350.5 69.4688,349.9219 L69.4688,352.6406 Z " fill="#000000"/><text fill="#000000" font-family="sans-serif" font-size="14" lengthAdjust="spacing" textLength="44.4678" x="80.5" y="351.8467">Abono</text><line style="stroke:#181818;stroke-width:0.5;" x1="52.5" x2="126.9678" y1="363" y2="363"/><line style="stroke:#181818;stroke-width:0.5;" x1="52.5" x2="126.9678" y1="371" y2="371"/></g><!--class SistemaPago--><g id="elem_SistemaPago"><rect codeLine="13" fill="#F1F1F1" height="48" id="SistemaPago" rx="2.5" ry="2.5" style="stroke:#181818;stroke-width:0.5;" width="122.8633" x="7" y="439"/><ellipse cx="22" cy="455" fill="#ADD1B2" rx="11" ry="11" style="stroke:#181818;stroke-width:1.0;"/><path d="M24.9688,460.6406 Q24.3906,460.9375 23.75,461.0781 Q23.1094,461.2344 22.4063,461.2344 Q19.9063,461.2344 18.5781,459.5938 Q17.2656,457.9375 17.2656,454.8125 Q17.2656,451.6875 18.5781,450.0313 Q19.9063,448.375 22.4063,448.375 Q23.1094,448.375 23.75,448.5313 Q24.4063,448.6875 24.9688,448.9844 L24.9688,451.7031 Q24.3438,451.125 23.75,450.8594 Q23.1563,450.5781 22.5313,450.5781 Q21.1875,450.5781 20.5,451.6563 Q19.8125,452.7188 19.8125,454.8125 Q19.8125,456.9063 20.5,457.9844 Q21.1875,459.0469 22.5313,459.0469 Q23.1563,459.0469 23.75,458.7813 Q24.3438,458.5 24.9688,457.9219 L24.9688,460.6406 Z " fill="#000000"/><text fill="#000000" font-family="sans-serif" font-size="14" lengthAdjust="spacing" textLength="90.8633" x="36" y="459.8467">SistemaPago</text><line style="stroke:#181818;stroke-width:0.5;" x1="8" x2="128.8633" y1="471" y2="471"/><line style="stroke:#181818;stroke-width:0.5;" x1="8" x2="128.8633" y1="479" y2="479"/></g><!--class Incidencias--><g id="elem_Incidencias"><rect codeLine="14" fill="#F1F1F1" height="48" id="Incidencias" rx="2.5" ry="2.5" style="stroke:#181818;stroke-width:0.5;" width="110.4219" x="165.5" y="439"/><ellipse cx="180.5" cy="455" fill="#ADD1B2" rx="11" ry="11" style="stroke:#181818;stroke-width:1.0;"/><path d="M183.4688,460.6406 Q182.8906,460.9375 182.25,461.0781 Q181.6094,461.2344 180.9063,461.2344 Q178.4063,461.2344 177.0781,459.5938 Q175.7656,457.9375 175.7656,454.8125 Q175.7656,451.6875 177.0781,450.0313 Q178.4063,448.375 180.9063,448.375 Q181.6094,448.375 182.25,448.5313 Q182.9063,448.6875 183.4688,448.9844 L183.4688,451.7031 Q182.8438,451.125 182.25,450.8594 Q181.6563,450.5781 181.0313,450.5781 Q179.6875,450.5781 179,451.6563 Q178.3125,452.7188 178.3125,454.8125 Q178.3125,456.9063 179,457.9844 Q179.6875,459.0469 181.0313,459.0469 Q181.6563,459.0469 182.25,458.7813 Q182.8438,458.5 183.4688,457.9219 L183.4688,460.6406 Z " fill="#000000"/><text fill="#000000" font-family="sans-serif" font-size="14" lengthAdjust="spacing" textLength="78.4219" x="194.5" y="459.8467">Incidencias</text><line style="stroke:#181818;stroke-width:0.5;" x1="166.5" x2="274.9219" y1="471" y2="471"/><line style="stroke:#181818;stroke-width:0.5;" x1="166.5" x2="274.9219" y1="479" y2="479"/></g><!--reverse link Ciudad to Agencia--><g id="link_Ciudad_Agencia"><path codeLine="16" d="M406.9754,58.2012 C378.8854,75.9212 345.31,97.11 317.17,114.86 " fill="none" id="Ciudad-backto-Agencia" style="stroke:#181818;stroke-width:1.0;"/><polygon fill="#181818" points="412.05,55,402.3039,56.4188,407.8211,57.6677,406.5722,63.185,412.05,55" style="stroke:#181818;stroke-width:1.0;"/></g><!--reverse link Ciudad to Persona--><g id="link_Ciudad_Persona"><path codeLine="17" d="M448.5,67 C448.5,84.66 448.5,96.94 448.5,114.68 " fill="none" id="Ciudad-backto-Persona" style="stroke:#181818;stroke-width:1.0;"/><polygon fill="none" points="448.5,55,444.5,61,448.5,67,452.5,61,448.5,55" style="stroke:#181818;stroke-width:1.0;"/></g><!--reverse link Ciudad to Vehiculos--><g id="link_Ciudad_Vehiculos"><path codeLine="18" d="M486.8282,62.8024 C525.4082,95.3824 582.42,151.24 608.5,223 C636.33,299.56 592.31,395.32 568.36,438.71 " fill="none" id="Ciudad-backto-Vehiculos" style="stroke:#181818;stroke-width:1.0;"/><polygon fill="none" points="477.66,55.06,479.6633,61.9872,486.8282,62.8024,484.8249,55.8751,477.66,55.06" style="stroke:#181818;stroke-width:1.0;"/></g><!--reverse link Agencia to Servicios--><g id="link_Agencia_Servicios"><path codeLine="20" d="M271.5226,174.9322 C260.9426,216.0922 242.06,289.58 231.48,330.72 " fill="none" id="Agencia-backto-Servicios" style="stroke:#181818;stroke-width:1.0;"/><polygon fill="#181818" points="274.51,163.31,269.1422,168.1253,271.5226,174.9322,276.8903,170.1169,274.51,163.31" style="stroke:#181818;stroke-width:1.0;"/></g><!--reverse link Agencia to Tarifas--><g id="link_Agencia_Tarifas"><path codeLine="21" d="M241.0436,170.3101 C218.0536,187.9701 195.95,204.94 172.86,222.68 " fill="none" id="Agencia-backto-Tarifas" style="stroke:#181818;stroke-width:1.0;"/><polygon fill="none" points="250.56,163,243.3651,163.4829,241.0436,170.3101,248.2385,169.8272,250.56,163" style="stroke:#181818;stroke-width:1.0;"/></g><!--reverse link Agencia to Vehiculos--><g id="link_Agencia_Vehiculos"><path codeLine="22" d="M330.6317,169.4628 C354.6717,184.5628 374.76,199.43 397.5,223 C464.37,292.31 520.05,393.82 543.1,438.93 " fill="none" id="Agencia-backto-Vehiculos" style="stroke:#181818;stroke-width:1.0;"/><polygon fill="none" points="320.47,163.08,323.4233,169.6586,330.6317,169.4628,327.6784,162.8841,320.47,163.08" style="stroke:#181818;stroke-width:1.0;"/></g><!--reverse link Tarifas to Abono--><g id="link_Tarifas_Abono"><path codeLine="24" d="M125.6334,281.7331 C116.8034,299.3931 110.03,312.94 101.16,330.68 " fill="none" id="Tarifas-backto-Abono" style="stroke:#181818;stroke-width:1.0;"/><polygon fill="none" points="131,271,124.739,274.5777,125.6334,281.7331,131.8944,278.1554,131,271" style="stroke:#181818;stroke-width:1.0;"/></g><!--link Tarifas to Servicios--><g id="link_Tarifas_Servicios"><path codeLine="25" d="M160.51,271 C174.34,288.66 189.6511,308.2158 203.5411,325.9558 " fill="none" id="Tarifas-to-Servicios" style="stroke:#181818;stroke-width:1.0;"/><polygon fill="#181818" points="207.24,330.68,204.8411,321.1278,204.1576,326.7432,198.5422,326.0597,207.24,330.68" style="stroke:#181818;stroke-width:1.0;"/></g><!--reverse link Abono to SistemaPago--><g id="link_Abono_SistemaPago"><path codeLine="27" d="M82.6135,390.7723 C79.1235,408.4323 76.63,420.94 73.12,438.68 " fill="none" id="Abono-backto-SistemaPago" style="stroke:#181818;stroke-width:1.0;"/><polygon fill="#181818" points="84.94,379,79.8527,384.1107,82.6135,390.7723,87.7009,385.6616,84.94,379" style="stroke:#181818;stroke-width:1.0;"/></g><!--link Servicios to Rutas--><g id="link_Servicios_Rutas"><path codeLine="29" d="M273.38,355 C285.05,355 290.72,355 302.38,355 " fill="none" id="Servicios-to-Rutas" style="stroke:#181818;stroke-width:1.0;"/><polygon fill="#181818" points="308.38,355,299.38,351,303.38,355,299.38,359,308.38,355" style="stroke:#181818;stroke-width:1.0;"/></g><!--reverse link Servicios to Incidencias--><g id="link_Servicios_Incidencias"><path codeLine="30" d="M223.8499,390.9864 C223.0099,408.6464 222.44,420.94 221.6,438.68 " fill="none" id="Servicios-backto-Incidencias" style="stroke:#181818;stroke-width:1.0;"/><polygon fill="none" points="224.42,379,220.1394,384.8032,223.8499,390.9864,228.1304,385.1833,224.42,379" style="stroke:#181818;stroke-width:1.0;"/></g><!--link Rutas to Vehiculos--><g id="link_Rutas_Vehiculos"><path codeLine="32" d="M380.6,374.22 C416.02,392.1 470.15,419.43 508.61,438.84 " fill="none" id="Rutas-Vehiculos" style="stroke:#181818;stroke-width:1.0;stroke-dasharray:7.0,7.0;"/></g><!--link Rutas to Paradas--><g id="link_Rutas_Paradas"><path codeLine="33" d="M362.08,379 C375.57,396.66 394.12,420.94 407.68,438.68 " fill="none" id="Rutas-Paradas" style="stroke:#181818;stroke-width:1.0;"/></g><!--reverse link Rutas to Horarios--><g id="link_Rutas_Horarios"><path codeLine="34" d="M349.4713,391.0802 C353.2013,417.2802 357.81,449.28 363.5,487 C366.55,507.19 370.15,530.12 372.79,546.76 " fill="none" id="Rutas-backto-Horarios" style="stroke:#181818;stroke-width:1.0;"/><polygon fill="none" points="347.78,379.2,344.6656,385.7039,349.4713,391.0802,352.5857,384.5763,347.78,379.2" style="stroke:#181818;stroke-width:1.0;"/></g><!--link Paradas to Horarios--><g id="link_Paradas_Horarios"><path codeLine="36" d="M414.87,487 C406.71,504.66 395.48,528.94 387.28,546.68 " fill="none" id="Paradas-Horarios" style="stroke:#181818;stroke-width:1.0;"/></g><!--reverse link Persona to Conductor--><g id="link_Persona_Conductor"><path codeLine="39" d="M479.6782,176.723 C494.6682,194.383 503.64,204.94 518.7,222.68 " fill="none" id="Persona-backto-Conductor" style="stroke:#181818;stroke-width:1.0;"/><polygon fill="none" points="468.03,163,475.1039,180.6057,484.2525,172.8402,468.03,163" style="stroke:#181818;stroke-width:1.0;"/></g><!--reverse link Persona to Pasajero--><g id="link_Persona_Pasajero"><path codeLine="40" d="M410.5789,175.258 C391.5889,192.918 378.66,204.94 359.58,222.68 " fill="none" id="Persona-backto-Pasajero" style="stroke:#181818;stroke-width:1.0;"/><polygon fill="none" points="423.76,163,406.4929,170.8643,414.6649,179.6517,423.76,163" style="stroke:#181818;stroke-width:1.0;"/></g><!--reverse link Conductor to Rutas--><g id="link_Conductor_Rutas"><path codeLine="42" d="M485.8704,276.7556 C451.3304,295.6356 413.46,316.32 380.65,334.25 " fill="none" id="Conductor-backto-Rutas" style="stroke:#181818;stroke-width:1.0;"/><polygon fill="none" points="496.4,271,489.2167,270.3679,485.8704,276.7556,493.0537,277.3877,496.4,271" style="stroke:#181818;stroke-width:1.0;"/></g><!--link Conductor to Vehiculos--><g id="link_Conductor_Vehiculos"><path codeLine="43" d="M540.24,271.31 C543.32,312.47 548.7841,385.6135 551.8641,426.7535 " fill="none" id="Conductor-to-Vehiculos" style="stroke:#181818;stroke-width:1.0;"/><polygon fill="none" points="552.76,438.72,556.3009,432.4381,551.8641,426.7535,548.3232,433.0354,552.76,438.72" style="stroke:#181818;stroke-width:1.0;"/></g><!--link Pasajero to Rutas--><g id="link_Pasajero_Rutas"><path codeLine="45" d="M336.67,271 C338.34,288.66 340.63,312.94 342.3,330.68 " fill="none" id="Pasajero-Rutas" style="stroke:#181818;stroke-width:1.0;stroke-dasharray:7.0,7.0;"/></g><!--link Pasajero to Servicios--><g id="link_Pasajero_Servicios"><path codeLine="46" d="M310.85,271 C292.69,288.66 267.72,312.94 249.48,330.68 " fill="none" id="Pasajero-Servicios" style="stroke:#181818;stroke-width:1.0;stroke-dasharray:7.0,7.0;"/></g><!--SRC=[LP7BRW8n34Nt_egiAuKlG9L6REXk11LxamGQHCTICjDLFvwyd9ZbFNxaNiSyCKPry9j52wQ8wUuMur4rERiGQS6c3hJOpQmKk8eH7ovGawTjnSYJPnV-lF4Kcxwu7s-sPzSp1hJ8waW1msZ-JkBMYzEL5dxZxEFgVd76EvElvDSMq-bjg67KNckEmeWIuZW23L_0sJyI7lQPvcRs9PbOqCe5LzDCjFuKAw4KwpiY3_GEfKCQAFSKCAyLQG7gmNSxuQ6Y7BNTju8yscyChQRU8BJZgFr_ukEhtt3_SUWDPNUrEfZM90_3OzbhRPMa9tm1]--></g></svg>