<svg xmlns="http://www.w3.org/2000/svg" xmlns:xlink="http://www.w3.org/1999/xlink" contentStyleType="text/css" height="444px" preserveAspectRatio="none" style="width:213px;height:444px;background:#FFFFFF;" version="1.1" viewBox="0 0 213 444" width="213px" zoomAndPan="magnify"><defs/><g><ellipse cx="106.5" cy="16" fill="#222222" rx="10" ry="10" style="stroke:#222222;stroke-width:1.0;"/><g id="Esperando"><rect fill="#F1F1F1" height="50" rx="12.5" ry="12.5" style="stroke:#181818;stroke-width:0.5;" width="94.2998" x="59.5" y="86"/><line style="stroke:#181818;stroke-width:0.5;" x1="59.5" x2="153.7998" y1="112.2969" y2="112.2969"/><text fill="#000000" font-family="sans-serif" font-size="14" lengthAdjust="spacing" textLength="74.2998" x="69.5" y="103.9951">Esperando</text></g><g id="EnBusDeCaminoADestino"><rect fill="#F1F1F1" height="50" rx="12.5" ry="12.5" style="stroke:#181818;stroke-width:0.5;" width="199.2861" x="7" y="196"/><line style="stroke:#181818;stroke-width:0.5;" x1="7" x2="206.2861" y1="222.2969" y2="222.2969"/><text fill="#000000" font-family="sans-serif" font-size="14" lengthAdjust="spacing" textLength="179.2861" x="17" y="213.9951">EnBusDeCaminoADestino</text></g><g id="LlegoAlDestino"><rect fill="#F1F1F1" height="50" rx="12.5" ry="12.5" style="stroke:#181818;stroke-width:0.5;" width="124.7266" x="44" y="306"/><line style="stroke:#181818;stroke-width:0.5;" x1="44" x2="168.7266" y1="332.2969" y2="332.2969"/><text fill="#000000" font-family="sans-serif" font-size="14" lengthAdjust="spacing" textLength="104.7266" x="54" y="323.9951">LlegoAlDestino</text></g><ellipse cx="106.5" cy="427" fill="none" rx="11" ry="11" style="stroke:#222222;stroke-width:1.0;"/><ellipse cx="106.5" cy="427" fill="#222222" rx="6" ry="6" style="stroke:#222222;stroke-width:1.0;"/><!--link *start* to Esperando--><g id="link_*start*_Esperando"><path d="M106.5,26.26 C106.5,40.04 106.5,60.42 106.5,79.91 " fill="none" id="*start*-to-Esperando" style="stroke:#181818;stroke-width:1.0;"/><polygon fill="#181818" points="106.5,85.91,110.5,76.91,106.5,80.91,102.5,76.91,106.5,85.91" style="stroke:#181818;stroke-width:1.0;"/></g><!--link Esperando to Esperando--><g id="link_Esperando_Esperando"><path d="M153.69,93.48 C172.61,92.49 188.5,98.33 188.5,111 C188.5,123.67 178.6018,129.8235 159.6818,128.8335 " fill="none" id="Esperando-to-Esperando" style="stroke:#181818;stroke-width:1.0;"/><polygon fill="#181818" points="153.69,128.52,162.4687,132.9848,158.6832,128.7813,162.8867,124.9958,153.69,128.52" style="stroke:#181818;stroke-width:1.0;"/></g><!--link Esperando to EnBusDeCaminoADestino--><g id="link_Esperando_EnBusDeCaminoADestino"><path d="M106.5,136.24 C106.5,154.02 106.5,172.08 106.5,189.84 " fill="none" id="Esperando-to-EnBusDeCaminoADestino" style="stroke:#181818;stroke-width:1.0;"/><polygon fill="#181818" points="106.5,195.84,110.5,186.84,106.5,190.84,102.5,186.84,106.5,195.84" style="stroke:#181818;stroke-width:1.0;"/></g><!--link EnBusDeCaminoADestino to LlegoAlDestino--><g id="link_EnBusDeCaminoADestino_LlegoAlDestino"><path d="M106.5,246.24 C106.5,264.02 106.5,282.08 106.5,299.84 " fill="none" id="EnBusDeCaminoADestino-to-LlegoAlDestino" style="stroke:#181818;stroke-width:1.0;"/><polygon fill="#181818" points="106.5,305.84,110.5,296.84,106.5,300.84,102.5,296.84,106.5,305.84" style="stroke:#181818;stroke-width:1.0;"/></g><!--link LlegoAlDestino to *end*--><g id="link_LlegoAlDestino_*end*"><path d="M106.5,356.21 C106.5,375.57 106.5,395.75 106.5,409.9 " fill="none" id="LlegoAlDestino-to-*end*" style="stroke:#181818;stroke-width:1.0;"/><polygon fill="#181818" points="106.5,415.9,110.5,406.9,106.5,410.9,102.5,406.9,106.5,415.9" style="stroke:#181818;stroke-width:1.0;"/></g><!--SRC=[YzQALT3LjLDmBIv8BKhCIyddWhFmY-SvbHQxf3edvcRcvJkwf1QN06a5BYxiuY0TFZcfwVcEEL0XBYvKFbX9j5Oi0000]--></g></svg>